<svg width="18" height="21" viewBox="0 0 18 21" fill="none" xmlns="http://www.w3.org/2000/svg">
<path d="M9.59299 20.2584L9.58199 20.2604L9.51099 20.2954L9.49099 20.2994L9.47699 20.2954L9.40599 20.2604C9.39532 20.2571 9.38732 20.2588 9.38199 20.2654L9.37799 20.2754L9.36099 20.7034L9.36599 20.7234L9.37599 20.7364L9.47999 20.8104L9.49499 20.8144L9.50699 20.8104L9.61099 20.7364L9.62299 20.7204L9.62699 20.7034L9.60999 20.2764C9.60732 20.2658 9.60166 20.2598 9.59299 20.2584ZM9.85799 20.1454L9.84499 20.1474L9.65999 20.2404L9.64999 20.2504L9.64699 20.2614L9.66499 20.6914L9.66999 20.7034L9.67799 20.7104L9.87899 20.8034C9.89165 20.8068 9.90132 20.8041 9.90799 20.7954L9.91199 20.7814L9.87799 20.1674C9.87466 20.1554 9.86799 20.1481 9.85799 20.1454ZM9.14299 20.1474C9.13858 20.1448 9.13331 20.1439 9.12828 20.145C9.12325 20.1461 9.11885 20.1491 9.11599 20.1534L9.10999 20.1674L9.07599 20.7814C9.07666 20.7934 9.08232 20.8014 9.09299 20.8054L9.10799 20.8034L9.30899 20.7104L9.31899 20.7024L9.32299 20.6914L9.33999 20.2614L9.33699 20.2494L9.32699 20.2394L9.14299 20.1474Z" fill="#D6FF00"/>
<path d="M13 0C14.3261 0 15.5979 0.526784 16.5355 1.46447C17.4732 2.40215 18 3.67392 18 5V13C18 14.3261 17.4732 15.5979 16.5355 16.5355C15.5979 17.4732 14.3261 18 13 18H5C3.67392 18 2.40215 17.4732 1.46447 16.5355C0.526784 15.5979 0 14.3261 0 13V5C0 3.67392 0.526784 2.40215 1.46447 1.46447C2.40215 0.526784 3.67392 0 5 0H13ZM9 5C7.93913 5 6.92172 5.42143 6.17157 6.17157C5.42143 6.92172 5 7.93913 5 9C5 10.0609 5.42143 11.0783 6.17157 11.8284C6.92172 12.5786 7.93913 13 9 13C10.0609 13 11.0783 12.5786 11.8284 11.8284C12.5786 11.0783 13 10.0609 13 9C13 7.93913 12.5786 6.92172 11.8284 6.17157C11.0783 5.42143 10.0609 5 9 5ZM9 7C9.53043 7 10.0391 7.21071 10.4142 7.58579C10.7893 7.96086 11 8.46957 11 9C11 9.53043 10.7893 10.0391 10.4142 10.4142C10.0391 10.7893 9.53043 11 9 11C8.46957 11 7.96086 10.7893 7.58579 10.4142C7.21071 10.0391 7 9.53043 7 9C7 8.46957 7.21071 7.96086 7.58579 7.58579C7.96086 7.21071 8.46957 7 9 7ZM13.5 3.5C13.2348 3.5 12.9804 3.60536 12.7929 3.79289C12.6054 3.98043 12.5 4.23478 12.5 4.5C12.5 4.76522 12.6054 5.01957 12.7929 5.20711C12.9804 5.39464 13.2348 5.5 13.5 5.5C13.7652 5.5 14.0196 5.39464 14.2071 5.20711C14.3946 5.01957 14.5 4.76522 14.5 4.5C14.5 4.23478 14.3946 3.98043 14.2071 3.79289C14.0196 3.60536 13.7652 3.5 13.5 3.5Z" fill="#D6FF00"/>
</svg>
