<svg width="260" height="49" viewBox="0 0 260 49" fill="none" xmlns="http://www.w3.org/2000/svg">
<g filter="url(#filter0_d_696_1597)">
<path d="M235.073 39.3694V28.8228C232.717 28.2706 230.655 27.3135 228.888 25.9514C227.158 24.5526 225.815 22.804 224.858 20.7057C223.9 18.5706 223.422 16.1226 223.422 13.3617V0.716797L232.478 0.716797V13.8587C232.478 15.2575 232.772 16.546 233.361 17.724C233.95 18.8651 234.778 19.7854 235.846 20.4849C236.95 21.1475 238.239 21.4788 239.711 21.4788C241.184 21.4788 242.454 21.1475 243.521 20.4849C244.626 19.7854 245.472 18.8651 246.061 17.724C246.65 16.546 246.945 15.2575 246.945 13.8587V0.716797L256.001 0.716797V13.3617C256.001 16.1226 255.522 18.5706 254.565 20.7057C253.608 22.804 252.246 24.5526 250.479 25.9514C248.712 27.3503 246.65 28.3074 244.294 28.8228V39.3694H235.073Z" fill="#D6FF00"/>
<path d="M192.354 39.3694V12.1469C192.354 10.0118 192.869 8.0792 193.9 6.34904C194.967 4.61887 196.384 3.25683 198.151 2.2629C199.955 1.23217 201.961 0.716797 204.17 0.716797L218.582 0.716797V8.44732L205.33 8.44732C204.299 8.44732 203.416 8.81544 202.679 9.55168C201.98 10.2879 201.63 11.1898 201.63 12.2574V17.8344L216.705 17.8344V25.5097L201.63 25.5097V39.3694H192.354Z" fill="#D6FF00"/>
<path d="M165.349 39.3694V28.8228C162.993 28.2706 160.932 27.3135 159.165 25.9514C157.435 24.5526 156.091 22.804 155.134 20.7057C154.177 18.5706 153.698 16.1226 153.698 13.3617V0.716797L162.754 0.716797V13.8587C162.754 15.2575 163.048 16.546 163.637 17.724C164.226 18.8651 165.055 19.7854 166.122 20.4849C167.227 21.1475 168.515 21.4788 169.988 21.4788C171.46 21.4788 172.73 21.1475 173.798 20.4849C174.902 19.7854 175.749 18.8651 176.338 17.724C176.927 16.546 177.221 15.2575 177.221 13.8587V0.716797L186.277 0.716797V13.3617C186.277 16.1226 185.798 18.5706 184.841 20.7057C183.884 22.804 182.522 24.5526 180.755 25.9514C178.988 27.3503 176.927 28.3074 174.571 28.8228V39.3694H165.349Z" fill="#D6FF00"/>
<path d="M121.553 40.0325C119.308 40.0325 117.246 39.5356 115.369 38.5417C113.528 37.5477 112.056 36.1673 110.951 34.4003C109.884 32.6333 109.35 30.535 109.35 28.1055V11.264C109.35 10.675 109.203 10.1412 108.908 9.66263C108.614 9.18407 108.227 8.79754 107.749 8.50305C107.27 8.20855 106.737 8.0613 106.148 8.0613C105.559 8.0613 105.025 8.20855 104.546 8.50305C104.068 8.79754 103.681 9.18407 103.387 9.66263C103.129 10.1412 103 10.675 103 11.264V39.3699H93.9443V11.9266C93.9443 9.60741 94.4597 7.56434 95.4904 5.79736C96.558 4.03039 98.0121 2.63153 99.8527 1.60079C101.73 0.570056 103.828 0.0546875 106.148 0.0546875C108.503 0.0546875 110.602 0.570056 112.442 1.60079C114.283 2.63153 115.737 4.03039 116.805 5.79736C117.872 7.56434 118.406 9.60741 118.406 11.9266V28.7681C118.406 29.3939 118.553 29.9461 118.848 30.4246C119.142 30.9032 119.51 31.2897 119.952 31.5842C120.431 31.8419 120.946 31.9707 121.498 31.9707C122.087 31.9707 122.621 31.8419 123.099 31.5842C123.615 31.2897 124.02 30.9032 124.314 30.4246C124.609 29.9461 124.756 29.3939 124.756 28.7681V11.9266C124.756 9.60741 125.29 7.56434 126.357 5.79736C127.425 4.03039 128.879 2.63153 130.72 1.60079C132.597 0.570056 134.677 0.0546875 136.959 0.0546875C139.315 0.0546875 141.395 0.570056 143.199 1.60079C145.039 2.63153 146.494 4.03039 147.561 5.79736C148.629 7.56434 149.162 9.60741 149.162 11.9266V39.3699H140.107V11.2087C140.107 10.6197 139.959 10.1044 139.665 9.66263C139.407 9.18407 139.039 8.79754 138.561 8.50305C138.082 8.20855 137.548 8.0613 136.959 8.0613C136.407 8.0613 135.873 8.20855 135.358 8.50305C134.879 8.79754 134.493 9.18407 134.198 9.66263C133.904 10.1044 133.757 10.6197 133.757 11.2087V28.1055C133.757 30.535 133.204 32.6333 132.1 34.4003C130.996 36.1673 129.523 37.5477 127.683 38.5417C125.842 39.5356 123.799 40.0325 121.553 40.0325Z" fill="#D6FF00"/>
<path d="M68.941 40.0883C65.8488 40.0883 63.051 39.5729 60.5478 38.5422C58.0446 37.5115 55.8911 36.0758 54.0873 34.2352C52.2835 32.3946 50.8847 30.2595 49.8907 27.8299C48.9336 25.4003 48.4551 22.7866 48.4551 19.9889C48.4551 17.1912 48.9336 14.5776 49.8907 12.148C50.8847 9.71838 52.2651 7.60169 54.0321 5.7979C55.8359 3.95729 57.9894 2.54003 60.4926 1.54611C63.0326 0.515368 65.8488 0 68.941 0C71.9964 0 74.7757 0.515368 77.2789 1.54611C79.8189 2.54003 81.9724 3.95729 83.7394 5.7979C85.5432 7.60169 86.942 9.73678 87.936 12.2032C88.9299 14.6328 89.4269 17.228 89.4269 19.9889C89.4269 22.7866 88.9299 25.4003 87.936 27.8299C86.942 30.2595 85.5432 32.3946 83.7394 34.2352C81.9724 36.0758 79.8189 37.5115 77.2789 38.5422C74.7757 39.5729 71.9964 40.0883 68.941 40.0883ZM68.941 32.1921C70.5607 32.1921 72.0516 31.8976 73.4136 31.3086C74.8125 30.6828 76.0089 29.8177 77.0028 28.7134C77.9967 27.609 78.7698 26.3206 79.322 24.8481C79.8741 23.3388 80.1502 21.7191 80.1502 19.9889C80.1502 18.2588 79.8741 16.6574 79.322 15.185C78.7698 13.7125 77.9967 12.4241 77.0028 11.3197C76.0089 10.2153 74.8125 9.36866 73.4136 8.77967C72.0516 8.15387 70.5607 7.84096 68.941 7.84096C67.2844 7.84096 65.7751 8.15387 64.4131 8.77967C63.051 9.36866 61.8547 10.2153 60.8239 11.3197C59.83 12.4241 59.0569 13.7309 58.5048 15.2402C57.9894 16.7127 57.7317 18.2956 57.7317 19.9889C57.7317 21.7191 57.9894 23.3388 58.5048 24.8481C59.0569 26.3206 59.83 27.609 60.8239 28.7134C61.8547 29.8177 63.051 30.6828 64.4131 31.3086C65.7751 31.8976 67.2844 32.1921 68.941 32.1921Z" fill="#D6FF00"/>
<path d="M31.609 40.0325C29.2899 40.0325 27.21 39.5356 25.3694 38.5417C23.5288 37.5109 22.0747 36.0937 21.0072 34.2899C19.9396 32.4861 19.4058 30.443 19.4058 28.1607L19.4058 11.264C19.4058 10.675 19.2586 10.1412 18.9641 9.66263C18.6696 9.18407 18.2831 8.79754 17.8045 8.50305C17.326 8.20855 16.7922 8.0613 16.2032 8.0613C15.6142 8.0613 15.0804 8.20855 14.6019 8.50305C14.1233 8.79754 13.7368 9.18407 13.4423 9.66263C13.1846 10.1412 13.0558 10.675 13.0558 11.264L13.0558 39.3699H4L4 11.9266C4 9.60741 4.51537 7.56434 5.54611 5.79736C6.61365 4.03039 8.06773 2.63153 9.90833 1.60079C11.7857 0.570056 13.884 0.0546875 16.2032 0.0546875C18.5592 0.0546875 20.6574 0.570056 22.498 1.60079C24.3386 2.63153 25.7927 4.03039 26.8603 5.79736C27.9278 7.56434 28.4616 9.60741 28.4616 11.9266V28.8233C28.4616 29.4123 28.6088 29.9645 28.9033 30.4798C29.1978 30.9584 29.566 31.3449 30.0077 31.6394C30.4863 31.8971 31.0016 32.0259 31.5538 32.0259C32.1428 32.0259 32.6766 31.8971 33.1551 31.6394C33.6705 31.3449 34.0754 30.9584 34.3699 30.4798C34.6644 29.9645 34.8117 29.4123 34.8117 28.8233V0.717302L43.8122 0.717302L43.8122 28.1607C43.8122 30.443 43.2784 32.4861 42.2109 34.2899C41.1433 36.0937 39.6893 37.5109 37.8487 38.5417C36.0081 39.5356 33.9282 40.0325 31.609 40.0325Z" fill="#D6FF00"/>
</g>
<defs>
<filter id="filter0_d_696_1597" x="0" y="0" width="260" height="48.0879" filterUnits="userSpaceOnUse" color-interpolation-filters="sRGB">
<feFlood flood-opacity="0" result="BackgroundImageFix"/>
<feColorMatrix in="SourceAlpha" type="matrix" values="0 0 0 0 0 0 0 0 0 0 0 0 0 0 0 0 0 0 127 0" result="hardAlpha"/>
<feOffset dy="4"/>
<feGaussianBlur stdDeviation="2"/>
<feComposite in2="hardAlpha" operator="out"/>
<feColorMatrix type="matrix" values="0 0 0 0 0 0 0 0 0 0 0 0 0 0 0 0 0 0 0.05 0"/>
<feBlend mode="normal" in2="BackgroundImageFix" result="effect1_dropShadow_696_1597"/>
<feBlend mode="normal" in="SourceGraphic" in2="effect1_dropShadow_696_1597" result="shape"/>
</filter>
</defs>
</svg>
