<svg width="645" height="103" viewBox="0 0 645 103" fill="none" xmlns="http://www.w3.org/2000/svg">
<path d="M591.435 100.77V73.7757C585.405 72.3624 580.129 69.9127 575.606 66.4265C571.178 62.8461 567.739 58.3706 565.289 53C562.839 47.5351 561.614 41.2694 561.614 34.2029V1.83789H584.793V35.4748C584.793 39.0552 585.546 42.353 587.054 45.3681C588.561 48.2889 590.681 50.6444 593.414 52.4346C596.241 54.1306 599.538 54.9786 603.307 54.9786C607.076 54.9786 610.327 54.1306 613.059 52.4346C615.886 50.6444 618.053 48.2889 619.56 45.3681C621.068 42.353 621.822 39.0552 621.822 35.4748V1.83789H645V34.2029C645 41.2694 643.775 47.5351 641.325 53C638.876 58.3706 635.389 62.8461 630.867 66.4265C626.344 70.0069 621.068 72.4566 615.038 73.7757V100.77H591.435Z" fill="white"/>
<path d="M482.096 100.77V31.0936C482.096 25.6287 483.415 20.6821 486.053 16.2537C488.785 11.8253 492.413 8.33915 496.936 5.79518C501.552 3.15699 506.687 1.83789 512.341 1.83789H549.228V21.6243H515.309C512.67 21.6243 510.409 22.5665 508.525 24.451C506.735 26.3354 505.839 28.6438 505.839 31.3762V45.6507H544.423V65.2958H505.839V100.77H482.096Z" fill="white"/>
<path d="M412.977 100.77V73.7757C406.947 72.3624 401.671 69.9127 397.148 66.4265C392.72 62.8461 389.281 58.3706 386.831 53C384.381 47.5351 383.156 41.2694 383.156 34.2029V1.83789H406.335V35.4748C406.335 39.0552 407.088 42.353 408.596 45.3681C410.103 48.2889 412.223 50.6444 414.956 52.4346C417.783 54.1306 421.08 54.9786 424.849 54.9786C428.618 54.9786 431.869 54.1306 434.601 52.4346C437.428 50.6444 439.595 48.2889 441.102 45.3681C442.61 42.353 443.364 39.0552 443.364 35.4748V1.83789H466.542V34.2029C466.542 41.2694 465.317 47.5351 462.867 53C460.418 58.3706 456.931 62.8461 452.409 66.4265C447.886 70.0069 442.61 72.4566 436.58 73.7757V100.77H412.977Z" fill="white"/>
<path d="M300.883 102.465C295.135 102.465 289.859 101.193 285.053 98.6488C280.342 96.1049 276.574 92.5716 273.747 88.049C271.015 83.5263 269.648 78.1557 269.648 71.9371V28.831C269.648 27.3234 269.271 25.9572 268.518 24.7323C267.764 23.5075 266.775 22.5181 265.55 21.7644C264.325 21.0106 262.959 20.6337 261.451 20.6337C259.944 20.6337 258.577 21.0106 257.352 21.7644C256.128 22.5181 255.138 23.5075 254.385 24.7323C253.725 25.9572 253.395 27.3234 253.395 28.831V100.769H230.217V30.5269C230.217 24.591 231.536 19.3617 234.174 14.8391C236.906 10.3165 240.628 6.7361 245.339 4.09791C250.145 1.45972 255.515 0.140625 261.451 0.140625C267.481 0.140625 272.852 1.45972 277.563 4.09791C282.274 6.7361 285.996 10.3165 288.728 14.8391C291.461 19.3617 292.827 24.591 292.827 30.5269V73.6331C292.827 75.2349 293.204 76.6482 293.957 77.8731C294.711 79.0979 295.653 80.0873 296.784 80.841C298.009 81.5006 299.328 81.8304 300.741 81.8304C302.249 81.8304 303.615 81.5006 304.84 80.841C306.159 80.0873 307.195 79.0979 307.949 77.8731C308.703 76.6482 309.08 75.2349 309.08 73.6331V30.5269C309.08 24.591 310.446 19.3617 313.178 14.8391C315.911 10.3165 319.633 6.7361 324.344 4.09791C329.149 1.45972 334.472 0.140625 340.314 0.140625C346.344 0.140625 351.668 1.45972 356.285 4.09791C360.996 6.7361 364.717 10.3165 367.45 14.8391C370.182 19.3617 371.548 24.591 371.548 30.5269V100.769H348.37V28.6896C348.37 27.1821 347.993 25.863 347.239 24.7323C346.58 23.5075 345.638 22.5181 344.413 21.7644C343.188 21.0106 341.822 20.6337 340.314 20.6337C338.901 20.6337 337.535 21.0106 336.216 21.7644C334.991 22.5181 334.001 23.5075 333.248 24.7323C332.494 25.863 332.117 27.1821 332.117 28.6896V71.9371C332.117 78.1557 330.704 83.5263 327.877 88.049C325.05 92.5716 321.281 96.1049 316.57 98.6488C311.859 101.193 306.63 102.465 300.883 102.465Z" fill="white"/>
<path d="M166.218 102.607C158.304 102.607 151.143 101.288 144.736 98.6495C138.329 96.0113 132.817 92.3367 128.2 87.6257C123.583 82.9146 120.003 77.4498 117.459 71.2312C115.009 65.0126 113.784 58.3229 113.784 51.1621C113.784 44.0013 115.009 37.3116 117.459 31.093C120.003 24.8744 123.536 19.4567 128.059 14.8398C132.675 10.1288 138.187 6.50126 144.594 3.95729C151.096 1.3191 158.304 0 166.218 0C174.038 0 181.152 1.3191 187.559 3.95729C194.06 6.50126 199.572 10.1288 204.095 14.8398C208.712 19.4567 212.292 24.9215 214.836 31.2343C217.38 37.4529 218.652 44.0955 218.652 51.1621C218.652 58.3229 217.38 65.0126 214.836 71.2312C212.292 77.4498 208.712 82.9146 204.095 87.6257C199.572 92.3367 194.06 96.0113 187.559 98.6495C181.152 101.288 174.038 102.607 166.218 102.607ZM166.218 82.3964C170.364 82.3964 174.18 81.6426 177.666 80.1351C181.246 78.5333 184.309 76.3191 186.853 73.4925C189.397 70.6659 191.375 67.3681 192.788 63.5993C194.202 59.7362 194.908 55.5905 194.908 51.1621C194.908 46.7337 194.202 42.6351 192.788 38.8662C191.375 35.0974 189.397 31.7996 186.853 28.973C184.309 26.1464 181.246 23.9793 177.666 22.4717C174.18 20.87 170.364 20.0691 166.218 20.0691C161.978 20.0691 158.115 20.87 154.629 22.4717C151.143 23.9793 148.081 26.1464 145.442 28.973C142.898 31.7996 140.92 35.1445 139.506 39.0076C138.187 42.7764 137.528 46.8279 137.528 51.1621C137.528 55.5905 138.187 59.7362 139.506 63.5993C140.92 67.3681 142.898 70.6659 145.442 73.4925C148.081 76.3191 151.143 78.5333 154.629 80.1351C158.115 81.6426 161.978 82.3964 166.218 82.3964Z" fill="white"/>
<path d="M70.6658 102.465C64.7299 102.465 59.4064 101.193 54.6954 98.6488C49.9843 96.0106 46.2626 92.3831 43.5302 87.7663C40.7978 83.1495 39.4315 77.9202 39.4315 72.0785V28.831C39.4315 27.3234 39.0547 25.9572 38.3009 24.7323C37.5471 23.5075 36.5578 22.5181 35.3329 21.7644C34.1081 21.0106 32.7418 20.6337 31.2343 20.6337C29.7268 20.6337 28.3606 21.0106 27.1357 21.7644C25.9108 22.5181 24.9215 23.5075 24.1677 24.7323C23.5082 25.9572 23.1784 27.3234 23.1784 28.831V100.769H0V30.5269C0 24.591 1.3191 19.3617 3.95729 14.8391C6.6897 10.3165 10.4114 6.7361 15.1225 4.09791C19.9278 1.45972 25.2984 0.140625 31.2343 0.140625C37.2645 0.140625 42.6351 1.45972 47.3461 4.09791C52.0572 6.7361 55.7789 10.3165 58.5113 14.8391C61.2437 19.3617 62.6099 24.591 62.6099 30.5269V73.7744C62.6099 75.282 62.9868 76.6953 63.7406 78.0144C64.4944 79.2393 65.4366 80.2286 66.5672 80.9824C67.7921 81.6419 69.1112 81.9717 70.5245 81.9717C72.0321 81.9717 73.3983 81.6419 74.6231 80.9824C75.9422 80.2286 76.9787 79.2393 77.7324 78.0144C78.4862 76.6953 78.8631 75.282 78.8631 73.7744V1.8366H101.9V72.0785C101.9 77.9202 100.534 83.1495 97.8015 87.7663C95.0691 92.3831 91.3474 96.0106 86.6363 98.6488C81.9253 101.193 76.6018 102.465 70.6658 102.465Z" fill="white"/>
</svg>
