<svg width="69" height="69" viewBox="0 0 69 69" fill="none" xmlns="http://www.w3.org/2000/svg">
<path d="M22.2388 32.166C16.3518 29.2225 6.90792 40.1381 2.92189 45.9638C-0.0216434 57.002 7.21454 63.4419 11.2006 65.2821L49.8344 66.202L61.7925 62.5225C62.7124 61.2961 65.104 57.3714 67.3117 51.4843C55.3536 52.4042 51.6741 40.4461 46.155 40.4461C40.6359 40.4461 39.716 48.7247 33.2771 48.7247C26.8381 48.7247 29.5976 35.8454 22.2388 32.166Z" fill="#0661CC"/>
<path d="M62.9461 34.4311C62.9461 26.961 62.937 21.8297 62.4879 17.9222C62.0521 14.1301 61.2638 12.1937 60.1811 10.8203C59.5544 10.0254 58.8362 9.30723 58.0414 8.68056C56.6679 7.59784 54.7315 6.80955 50.9394 6.37374C47.032 5.92467 41.9007 5.91561 34.4306 5.91561C26.9605 5.91561 21.8292 5.92467 17.9217 6.37374C14.1296 6.80955 12.1932 7.59784 10.8198 8.68056C10.025 9.30723 9.30674 10.0254 8.68007 10.8203C7.59736 12.1937 6.80906 14.1301 6.37325 17.9222C5.92418 21.8297 5.91512 26.961 5.91512 34.4311C5.91512 41.9012 5.92418 47.0325 6.37325 50.9399C6.80906 54.732 7.59736 56.6684 8.68007 58.0419C9.30674 58.8367 10.025 59.5549 10.8198 60.1816C12.1932 61.2643 14.1296 62.0526 17.9217 62.4884C21.8292 62.9375 26.9605 62.9465 34.4306 62.9465V68.4657C20.2112 68.4657 12.8798 68.465 7.88059 64.8743L7.4027 64.5168C6.40895 63.7333 5.49983 62.8488 4.68805 61.8794L4.3449 61.459C0.395359 56.449 0.395996 49.1091 0.395996 34.4311C0.395996 19.753 0.395359 12.4132 4.3449 7.40318C5.24037 6.26732 6.26683 5.24086 7.4027 4.34539C12.4127 0.395847 19.7525 0.396484 34.4306 0.396484C49.1086 0.396484 56.4485 0.395847 61.4585 4.34539C62.5943 5.24086 63.6208 6.26732 64.5163 7.40318C68.4658 12.4132 68.4652 19.753 68.4652 34.4311C68.4652 49.1091 68.4658 56.449 64.5163 61.459L64.1731 61.8794C63.3613 62.8488 62.4522 63.7333 61.4585 64.5168L60.9806 64.8743C55.9814 68.465 48.65 68.4657 34.4306 68.4657V62.9465C41.9007 62.9465 47.032 62.9375 50.9394 62.4884C54.7315 62.0526 56.6679 61.2643 58.0414 60.1816C58.8362 59.5549 59.5544 58.8367 60.1811 58.0419C61.2638 56.6684 62.0521 54.732 62.4879 50.9399C62.937 47.0325 62.9461 41.9012 62.9461 34.4311Z" fill="#0661CC"/>
<path d="M51.4472 24.2207C51.4472 27.9801 48.3996 31.0276 44.6402 31.0276C40.8809 31.0276 37.8333 27.9801 37.8333 24.2207C37.8333 20.4613 40.8809 17.4138 44.6402 17.4138C48.3996 17.4138 51.4472 20.4613 51.4472 24.2207Z" fill="#0661CC"/>
</svg>
