<svg width="18" height="18" viewBox="0 0 18 18" fill="none" xmlns="http://www.w3.org/2000/svg">
<path d="M7.92676 0C10.1406 0 12.0161 0.767771 13.5527 2.30273C15.0891 3.83762 15.8559 5.7123 15.8535 7.92676C15.8535 8.82096 15.7112 9.66443 15.4268 10.457C15.1422 11.2497 14.7564 11.9518 14.2686 12.5615L17.9023 16.1953L16.1953 17.9023L12.5605 14.2686C11.9509 14.7562 11.2496 15.1423 10.457 15.4268C9.66441 15.7113 8.82098 15.8535 7.92676 15.8535C5.71152 15.8535 3.8368 15.0865 2.30273 13.5518C0.768584 12.0168 0.00081301 10.1414 0 7.92676C-0.000777255 5.71218 0.766993 3.83766 2.30273 2.30273C3.83848 0.767812 5.71299 2.20294e-05 7.92676 0ZM7.92676 2.43945C6.40079 2.43785 5.10505 2.97097 4.04004 4.04004C2.97503 5.10911 2.44193 6.40487 2.43945 7.92676C2.43701 9.4486 2.97028 10.7446 4.04004 11.8145C5.10994 12.8844 6.40566 13.4183 7.92676 13.415C9.45115 13.415 10.747 12.8811 11.8145 11.8145C12.8819 10.7478 13.4159 9.45195 13.415 7.92676C13.4142 6.40162 12.8803 5.10586 11.8145 4.04004C10.7486 2.97435 9.45266 2.44108 7.92676 2.43945Z" fill="#D6FF00"/>
</svg>
