<svg width="25" height="25" viewBox="0 0 25 25" fill="none" xmlns="http://www.w3.org/2000/svg">
<circle cx="12.5" cy="12.5" r="12.5" fill="white"/>
<path fill-rule="evenodd" clip-rule="evenodd" d="M14.7196 6.09194C14.639 6.10593 14.5619 6.13576 14.4928 6.1797C14.4237 6.22363 14.364 6.28081 14.3172 6.34794C14.2703 6.41506 14.2372 6.4908 14.2198 6.57078C14.2024 6.65076 14.2009 6.73341 14.2156 6.81394C14.2465 6.97726 14.3406 7.12176 14.4775 7.21597C14.6145 7.31019 14.7831 7.34648 14.9466 7.31694C15.0786 7.29361 15.2113 7.27128 15.3446 7.24994C15.4896 7.22794 15.6016 7.29594 15.6496 7.38994C16.1256 8.31494 16.5496 9.22794 16.8436 10.1719C16.4656 10.3439 16.0426 10.5399 15.6206 10.7449C15.5605 11.213 15.4798 11.6781 15.3786 12.1389V12.1429L15.3756 12.1519C15.2703 12.6339 15.1316 13.1186 14.9596 13.6059C14.8156 14.0089 14.4896 14.3929 14.1576 14.7289C13.7526 15.1389 13.9496 15.8189 14.5206 15.7389L14.9656 17.4409C14.3989 17.6243 13.8363 17.8409 13.2776 18.0909C13.1883 18.1302 13.1077 18.1869 13.0404 18.2576C12.9731 18.3283 12.9206 18.4116 12.8858 18.5028C12.851 18.5939 12.8347 18.6911 12.8377 18.7886C12.8408 18.8862 12.8632 18.9821 12.9036 19.0709C13.0736 19.4429 13.5176 19.6089 13.8946 19.4409C15.3033 18.8058 16.8028 18.3951 18.3386 18.2239C18.4357 18.2134 18.5297 18.1837 18.6153 18.1368C18.7009 18.0899 18.7765 18.0265 18.8376 17.9503C18.8987 17.8742 18.9442 17.7867 18.9715 17.693C18.9988 17.5992 19.0073 17.501 18.9966 17.4039C18.9721 17.2078 18.8711 17.0293 18.7157 16.9072C18.5603 16.7851 18.363 16.7293 18.1666 16.7519C17.5679 16.8206 16.9826 16.9189 16.4106 17.0469L15.9676 15.3559C17.6946 14.6609 18.6956 12.8499 18.3556 11.0509C18.0656 9.52394 17.4406 8.13794 16.7676 6.82894C16.616 6.54039 16.3772 6.307 16.0853 6.16194C15.7934 6.01688 15.4632 5.96754 15.1416 6.02094C15.0003 6.04294 14.8596 6.06728 14.7196 6.09194ZM9.06461 6.10594C8.74433 6.0584 8.41717 6.11041 8.12742 6.25493C7.83767 6.39944 7.59931 6.6295 7.44461 6.91394C6.74761 8.22094 6.09661 9.60594 5.78161 11.1249C5.60909 11.9494 5.72303 12.808 6.10461 13.5589C6.52316 14.3838 7.22822 15.0278 8.08761 15.3699L7.61661 17.0479C7.02421 16.9254 6.42569 16.8346 5.82361 16.7759C5.62563 16.7565 5.42801 16.8164 5.27423 16.9426C5.12045 17.0688 5.02311 17.251 5.00361 17.4489C4.98412 17.6469 5.04407 17.8445 5.17028 17.9983C5.2965 18.1521 5.47863 18.2495 5.67661 18.2689C6.45054 18.3433 7.21752 18.4777 7.97061 18.6709C8.70561 18.8589 9.42361 19.1049 10.1426 19.4129C10.3256 19.4912 10.5322 19.4935 10.7169 19.4194C10.9016 19.3454 11.0494 19.2009 11.1276 19.0179C11.2059 18.8349 11.2082 18.6284 11.1341 18.4436C11.06 18.2589 10.9156 18.1112 10.7326 18.0329C10.1893 17.8008 9.63417 17.5972 9.06961 17.4229L9.53961 15.7489C11.3816 15.9989 13.1646 14.9289 13.7796 13.2009C13.9356 12.7659 14.0576 12.3279 14.1556 11.8889L14.1576 11.8789C14.3896 10.8389 14.4856 9.78694 14.5416 8.75894C14.5573 8.43409 14.4687 8.11273 14.2888 7.84179C14.1089 7.57086 13.8471 7.36453 13.5416 7.25294C12.097 6.70389 10.5952 6.31913 9.06461 6.10594ZM12.9376 11.6159L12.9386 11.6099C13.1486 10.6709 13.2386 9.69794 13.2936 8.68994C13.2996 8.58894 13.2386 8.47394 13.0996 8.42194C11.7414 7.90491 10.3291 7.54295 8.88961 7.34294C8.82319 7.33133 8.7548 7.34034 8.69366 7.36877C8.63251 7.3972 8.58155 7.44367 8.54761 7.50194C7.86561 8.78194 7.28361 10.0389 7.00661 11.3779C6.98663 11.4798 6.97194 11.5826 6.96261 11.6859C7.89661 11.6019 9.07561 11.5159 9.99461 11.5189C10.8826 11.5219 12.0216 11.6079 12.9196 11.6909L12.9376 11.6159Z" fill="#0661CC"/>
</svg>
