<svg width="25" height="25" viewBox="0 0 25 25" fill="none" xmlns="http://www.w3.org/2000/svg">
<circle cx="12.5" cy="12.5" r="12.5" fill="white"/>
<path d="M18.4919 7.50758C18.0147 7.02967 17.4479 6.65053 16.824 6.39184C16.2001 6.13315 15.5312 6 14.8558 6C14.1803 6 13.5115 6.13315 12.8876 6.39184C12.2636 6.65053 11.6968 7.02967 11.2196 7.50758L9.88562 8.84886C9.84789 8.87112 9.81641 8.90259 9.79414 8.94031L7.50726 11.2266C7.02975 11.7035 6.65088 12.2697 6.39226 12.893C6.13364 13.5162 6.00035 14.1843 6 14.8591C5.99929 16.2218 6.54009 17.529 7.50345 18.4931C8.4668 19.4573 9.77379 19.9993 11.1369 20C12.5 20.0007 13.8076 19.4601 14.7719 18.497L18.4691 14.8008C18.952 14.3248 19.336 13.758 19.5987 13.1329C19.8615 12.5078 19.9978 11.837 20 11.159C20.0021 10.4809 19.8699 9.80922 19.6111 9.18253C19.3523 8.55584 18.9719 7.98658 18.4919 7.50758ZM12.4622 8.76503C12.8423 8.38143 13.3283 8.11995 13.8579 8.01405C14.3875 7.90816 14.9367 7.96266 15.4351 8.1706C15.7644 8.30777 16.0625 8.50973 16.3118 8.76503C16.4537 8.90782 16.5334 9.10097 16.5334 9.3023C16.5334 9.50364 16.4537 9.69679 16.3118 9.83958C16.1689 9.98152 15.9757 10.0612 15.7744 10.0612C15.573 10.0612 15.3798 9.98152 15.2369 9.83958C15.0696 9.67244 14.8565 9.55862 14.6245 9.5125C14.3924 9.46639 14.152 9.49004 13.9334 9.58047C13.7863 9.63707 13.6535 9.72556 13.5446 9.83958C13.4007 9.97618 13.2092 10.0513 13.0107 10.0491C12.8123 10.0469 12.6225 9.96742 12.4817 9.82762C12.3408 9.68782 12.26 9.49865 12.2564 9.30027C12.2527 9.10189 12.3266 8.9099 12.4622 8.76503ZM15.6943 15.9516C14.4537 15.3691 13.3399 14.5482 12.4164 13.5357C11.4192 12.6251 10.6111 11.5271 10.0381 10.3045L10.9071 9.43567C11.4209 10.6863 12.2013 11.8098 13.194 12.7279C14.1202 13.7487 15.2603 14.5528 16.5328 15.0828L15.6943 15.9516Z" fill="#0661CC"/>
</svg>
