<svg width="30" height="30" viewBox="0 0 30 30" fill="none" xmlns="http://www.w3.org/2000/svg">
<circle cx="15" cy="15" r="15" fill="white" fill-opacity="0.4"/>
<path d="M8 15L6.93934 13.9393L5.87868 15L6.93934 16.0607L8 15ZM23 16.5C23.8284 16.5 24.5 15.8284 24.5 15C24.5 14.1716 23.8284 13.5 23 13.5V15V16.5ZM14 9L12.9393 7.93934L6.93934 13.9393L8 15L9.06066 16.0607L15.0607 10.0607L14 9ZM8 15L6.93934 16.0607L12.9393 22.0607L14 21L15.0607 19.9393L9.06066 13.9393L8 15ZM8 15V16.5H23V15V13.5H8V15Z" fill="#0661CC"/>
</svg>
