<svg width="56" height="43" viewBox="0 0 56 43" fill="none" xmlns="http://www.w3.org/2000/svg">
<path d="M9.58953 2.34441C11.6083 0.460475 14.7718 0.569877 16.6559 2.58855L44.6559 32.5885C46.5399 34.6073 46.4305 37.7709 44.4118 39.655C42.393 41.5389 39.2295 41.4295 37.3454 39.4108L9.34539 9.41082C7.46145 7.39205 7.57085 4.2285 9.58953 2.34441Z" fill="#D6FF00"/>
<path d="M44.9774 2.46352C47.173 4.32258 47.5112 7.41288 45.7328 9.36513L18.2197 39.5663C16.4413 41.5186 13.219 41.5941 11.0235 39.7351C8.82811 37.8761 8.49026 34.7866 10.2684 32.8344L37.7811 2.63231C39.5596 0.680057 42.7818 0.604474 44.9774 2.46352Z" fill="#D6FF00"/>
</svg>
