<svg width="25" height="25" viewBox="0 0 25 25" fill="none" xmlns="http://www.w3.org/2000/svg">
<circle cx="12.5" cy="12.5" r="12.5" fill="white"/>
<path d="M16.6786 9.69231H6.46429C6.34115 9.69231 6.22306 9.74093 6.13599 9.82749C6.04892 9.91404 6 10.0314 6 10.1538V12.9231C6.00139 13.7088 6.17043 14.4854 6.49596 15.2014C6.82149 15.9174 7.29611 16.5567 7.88848 17.0769H6.46429C6.34115 17.0769 6.22306 17.1255 6.13599 17.2121C6.04892 17.2987 6 17.4161 6 17.5385C6 17.6609 6.04892 17.7783 6.13599 17.8648C6.22306 17.9514 6.34115 18 6.46429 18H16.6786C16.8017 18 16.9198 17.9514 17.0069 17.8648C17.0939 17.7783 17.1429 17.6609 17.1429 17.5385C17.1429 17.4161 17.0939 17.2987 17.0069 17.2121C16.9198 17.1255 16.8017 17.0769 16.6786 17.0769H15.2544C15.9654 16.4504 16.5046 15.6545 16.8213 14.764C17.411 14.7279 17.9647 14.4696 18.3695 14.0418C18.7743 13.614 18.9998 13.0489 19 12.4615V12C19 11.388 18.7554 10.801 18.3201 10.3682C17.8847 9.93544 17.2943 9.69231 16.6786 9.69231ZM18.0714 12.4615C18.0712 12.7601 17.9739 13.0507 17.794 13.2898C17.6141 13.5289 17.3613 13.7039 17.0732 13.7885C17.1192 13.5023 17.1425 13.2129 17.1429 12.9231V10.695C17.4143 10.7904 17.6494 10.9671 17.8157 11.2008C17.982 11.4345 18.0713 11.7137 18.0714 12V12.4615ZM11.1071 8.30769V6.46154C11.1071 6.33913 11.1561 6.22174 11.2431 6.13518C11.3302 6.04863 11.4483 6 11.5714 6C11.6946 6 11.8127 6.04863 11.8997 6.13518C11.9868 6.22174 12.0357 6.33913 12.0357 6.46154V8.30769C12.0357 8.4301 11.9868 8.54749 11.8997 8.63405C11.8127 8.7206 11.6946 8.76923 11.5714 8.76923C11.4483 8.76923 11.3302 8.7206 11.2431 8.63405C11.1561 8.54749 11.1071 8.4301 11.1071 8.30769ZM12.9643 8.30769V6.46154C12.9643 6.33913 13.0132 6.22174 13.1003 6.13518C13.1873 6.04863 13.3054 6 13.4286 6C13.5517 6 13.6698 6.04863 13.7569 6.13518C13.8439 6.22174 13.8929 6.33913 13.8929 6.46154V8.30769C13.8929 8.4301 13.8439 8.54749 13.7569 8.63405C13.6698 8.7206 13.5517 8.76923 13.4286 8.76923C13.3054 8.76923 13.1873 8.7206 13.1003 8.63405C13.0132 8.54749 12.9643 8.4301 12.9643 8.30769ZM9.25 8.30769V6.46154C9.25 6.33913 9.29892 6.22174 9.38599 6.13518C9.47306 6.04863 9.59115 6 9.71429 6C9.83742 6 9.95551 6.04863 10.0426 6.13518C10.1297 6.22174 10.1786 6.33913 10.1786 6.46154V8.30769C10.1786 8.4301 10.1297 8.54749 10.0426 8.63405C9.95551 8.7206 9.83742 8.76923 9.71429 8.76923C9.59115 8.76923 9.47306 8.7206 9.38599 8.63405C9.29892 8.54749 9.25 8.4301 9.25 8.30769Z" fill="#0661CC"/>
</svg>
