<svg width="24" height="24" viewBox="0 0 24 24" fill="none" xmlns="http://www.w3.org/2000/svg">
<path d="M12 24C5.3724 24 0 18.6276 0 12C0 5.3724 5.3724 0 12 0C18.6276 0 24 5.3724 24 12C24 18.6276 18.6276 24 12 24ZM12 9C12.4774 9 12.9352 8.81036 13.2728 8.47279C13.6104 8.13523 13.8 7.67739 13.8 7.2C13.8 6.72261 13.6104 6.26477 13.2728 5.92721C12.9352 5.58964 12.4774 5.4 12 5.4C11.5226 5.4 11.0648 5.58964 10.7272 5.92721C10.3896 6.26477 10.2 6.72261 10.2 7.2C10.2 7.67739 10.3896 8.13523 10.7272 8.47279C11.0648 8.81036 11.5226 9 12 9ZM14.4 15.6H13.2V10.2H9.6V12.6H10.8V15.6H9.6V18H14.4V15.6Z" fill="white"/>
</svg>
