<svg width="25" height="25" viewBox="0 0 25 25" fill="none" xmlns="http://www.w3.org/2000/svg">
<circle cx="12.5" cy="12.5" r="12.5" fill="white"/>
<path d="M13 7C13.8633 7 14.5556 7.6675 14.5556 8.5C14.5556 9.3325 13.8633 10 13 10C12.1367 10 11.4444 9.3325 11.4444 8.5C11.4444 7.6675 12.1444 7 13 7ZM20 16V14.5C18.2578 14.5 16.7644 13.78 15.6444 12.49L14.6022 11.29C14.4575 11.1209 14.2758 10.9847 14.07 10.8913C13.8643 10.798 13.6396 10.7497 13.4122 10.75H12.6111C12.1367 10.75 11.7011 10.945 11.4056 11.29L10.3633 12.49C9.23556 13.78 7.74222 14.5 6 14.5V16C8.15444 16 10.0367 15.1225 11.4444 13.5625V15.25L8.42667 16.4125C7.90556 16.615 7.55556 17.125 7.55556 17.6575C7.55556 18.4 8.17778 19 8.94778 19H10.6667V18.625C10.6667 18.1277 10.8715 17.6508 11.2362 17.2992C11.6008 16.9475 12.0954 16.75 12.6111 16.75H14.9444C15.1622 16.75 15.3333 16.915 15.3333 17.125C15.3333 17.335 15.1622 17.5 14.9444 17.5H12.6111C11.9656 17.5 11.4444 18.0025 11.4444 18.625V19H17.0522C17.8222 19 18.4444 18.4 18.4444 17.6575C18.4444 17.125 18.0944 16.615 17.5733 16.4125L14.5556 15.25V13.5625C15.9633 15.1225 17.8456 16 20 16Z" fill="#0661CC"/>
</svg>
