<svg width="25" height="25" viewBox="0 0 25 25" fill="none" xmlns="http://www.w3.org/2000/svg">
<circle cx="12.5" cy="12.5" r="12.5" fill="white"/>
<path d="M10.6246 8.57766C11.6823 7.15949 13.2725 6.74536 14.7354 7.14385C16.3145 7.57362 17.7028 8.92997 18.1639 10.8189C18.1877 10.9157 18.2083 11.0125 18.2257 11.1094C17.5601 10.8722 16.8362 10.8539 16.1595 11.0572C15.2009 10.3481 14.0137 10.229 12.9582 10.6178C11.6361 11.1056 10.6038 12.3428 10.3647 13.8995C10.0593 15.8927 11.2734 17.6833 12.9902 19.2057L13.2792 19.456C13.0461 19.4724 12.8093 19.4359 12.5828 19.3875C12.4665 19.3624 12.3507 19.3346 12.2357 19.3041L11.8358 19.1923C8.2799 18.192 5.8994 16.6271 5.21639 14.2883C4.67117 12.4218 5.19553 10.553 6.34854 9.39102C7.41664 8.31473 9.00016 7.87826 10.6246 8.57766ZM11.8372 14.1252C12.156 12.0456 14.5611 11.0207 15.796 12.8054C15.8079 12.8219 15.8258 12.8332 15.8459 12.8367C15.8659 12.8402 15.8866 12.8356 15.9033 12.824C17.6738 11.5697 19.5828 13.355 19.1709 15.4182C18.9326 16.6149 17.8228 17.6081 15.8415 18.3976L15.5175 18.5242L15.3216 18.6047C15.1525 18.6709 14.9737 18.7238 14.8121 18.6955C14.6512 18.6672 14.5015 18.5555 14.3652 18.4363L14.1343 18.2278C12.4113 16.745 11.6456 15.3775 11.8372 14.1252Z" fill="#0661CC"/>
</svg>
