<svg width="25" height="25" viewBox="0 0 25 25" fill="none" xmlns="http://www.w3.org/2000/svg">
<circle cx="12.5" cy="12.5" r="12.5" fill="white"/>
<path d="M17.1994 9.50035C17.6636 9.50035 18.1087 9.31596 18.437 8.98774C18.7652 8.65951 18.9496 8.21435 18.9496 7.75018C18.9496 7.286 18.7652 6.84084 18.437 6.51261C18.1087 6.18439 17.6636 6 17.1994 6C16.7352 6 16.2901 6.18439 15.9618 6.51261C15.6336 6.84084 15.4492 7.286 15.4492 7.75018C15.4492 8.21435 15.6336 8.65951 15.9618 8.98774C16.2901 9.31596 16.7352 9.50035 17.1994 9.50035Z" stroke="#0661CC" stroke-width="1.5"/>
<path d="M8.79888 10.1226L11.6002 9.15234L15.4495 10.9897L11.6002 13.8589L15.4495 16.3932L13.0021 19.6534M16.9617 11.8284L17.9005 12.3391L20 10.3663M10.4962 15.2944L9.4566 16.6637L6 18.6029" stroke="#0661CC" stroke-width="1.5" stroke-linecap="round" stroke-linejoin="round"/>
</svg>
