<svg width="240" height="250" viewBox="0 0 240 250" fill="none" xmlns="http://www.w3.org/2000/svg">
<rect x="2" y="12" width="236" height="236" rx="38" fill="#0661CC" stroke="#0661CC" stroke-width="4"/>
<path d="M97.8359 47.7598H94.1836L94.1641 45.748H97.2305C97.7708 45.748 98.2135 45.6797 98.5586 45.543C98.9036 45.3997 99.1608 45.1947 99.3301 44.9277C99.5059 44.6543 99.5938 44.3223 99.5938 43.9316C99.5938 43.4889 99.5091 43.1309 99.3398 42.8574C99.1771 42.584 98.9199 42.3854 98.5684 42.2617C98.2233 42.138 97.7773 42.0762 97.2305 42.0762H95.1992V54H92.2695V39.7812H97.2305C98.0573 39.7812 98.7962 39.8594 99.4473 40.0156C100.105 40.1719 100.661 40.4095 101.117 40.7285C101.573 41.0475 101.921 41.4512 102.162 41.9395C102.403 42.4212 102.523 42.9941 102.523 43.6582C102.523 44.2441 102.39 44.7845 102.123 45.2793C101.863 45.7741 101.449 46.1777 100.883 46.4902C100.323 46.8027 99.5905 46.9753 98.6855 47.0078L97.8359 47.7598ZM97.709 54H93.3828L94.5254 51.7148H97.709C98.2233 51.7148 98.6432 51.6335 98.9688 51.4707C99.2943 51.3014 99.5352 51.0736 99.6914 50.7871C99.8477 50.5007 99.9258 50.1719 99.9258 49.8008C99.9258 49.3841 99.8542 49.0228 99.7109 48.7168C99.5742 48.4108 99.3529 48.1764 99.0469 48.0137C98.7409 47.8444 98.3372 47.7598 97.8359 47.7598H95.0137L95.0332 45.748H98.5488L99.2227 46.5391C100.089 46.526 100.785 46.679 101.312 46.998C101.846 47.3105 102.234 47.7174 102.475 48.2188C102.722 48.7201 102.846 49.2572 102.846 49.8301C102.846 50.7415 102.647 51.5098 102.25 52.1348C101.853 52.7533 101.27 53.2188 100.502 53.5312C99.7402 53.8438 98.8092 54 97.709 54ZM116.322 51.7148V54H106.078V51.7148H116.322ZM106.947 51.7148V57.4863H104.193L104.037 51.7148H106.947ZM118.432 51.7148L118.178 57.4961H115.492V51.7148H118.432ZM114.711 39.7812V42.0762H107.865V39.7812H114.711ZM116.801 39.7812V54H113.881V39.7812H116.801ZM107.504 39.7812H110.434L110.053 45.5723C109.994 46.5293 109.89 47.3757 109.74 48.1113C109.597 48.8405 109.421 49.4818 109.213 50.0352C109.011 50.5885 108.786 51.0736 108.539 51.4902C108.292 51.9004 108.031 52.2585 107.758 52.5645C107.484 52.8639 107.208 53.1309 106.928 53.3652C106.648 53.5931 106.374 53.8047 106.107 54H104.428V51.7148H105.082C105.271 51.5586 105.469 51.3438 105.678 51.0703C105.893 50.7969 106.094 50.429 106.283 49.9668C106.479 49.498 106.648 48.9056 106.791 48.1895C106.941 47.4733 107.051 46.6009 107.123 45.5723L107.504 39.7812ZM122.768 49.3906L128.48 39.7812H131.41V54H128.48V44.3906L122.768 54H119.838V39.7812H122.768V49.3906ZM136.537 39.7812L139.213 44.7422L141.889 39.7812H145.238L141.107 46.832L145.346 54H141.967L139.213 48.9414L136.459 54H133.061L137.309 46.832L133.168 39.7812H136.537Z" fill="white"/>
<path d="M208.816 82.582L208.816 80.375L210.369 80.375L210.369 82.1328C210.369 82.6471 210.447 83.0638 210.604 83.3828C210.766 83.7018 210.994 83.9362 211.287 84.0859C211.58 84.2357 211.925 84.3105 212.322 84.3105C212.648 84.3105 212.947 84.2259 213.221 84.0566C213.494 83.8939 213.712 83.64 213.875 83.2949C214.044 82.9499 214.129 82.5104 214.129 81.9766C214.129 81.5729 214.057 81.2051 213.914 80.873C213.771 80.541 213.569 80.2773 213.309 80.082C213.055 79.8867 212.745 79.7891 212.381 79.7891L212.381 76.8691C213.006 76.8691 213.566 77.0026 214.061 77.2695C214.562 77.543 214.985 77.9141 215.33 78.3828C215.682 78.8581 215.949 79.4049 216.131 80.0234C216.313 80.6419 216.404 81.293 216.404 81.9766C216.404 82.7773 216.316 83.5 216.141 84.1445C215.971 84.7891 215.717 85.3424 215.379 85.8047C215.04 86.2669 214.62 86.6217 214.119 86.8691C213.618 87.1165 213.035 87.2402 212.371 87.2402C211.883 87.2402 211.424 87.1296 210.994 86.9082C210.564 86.6868 210.187 86.3711 209.861 85.9609C209.536 85.5508 209.279 85.0592 209.09 84.4863C208.908 83.9134 208.816 83.2786 208.816 82.582ZM209.666 80.375L209.666 82.582C209.666 83.3568 209.585 84.0436 209.422 84.6426C209.259 85.248 209.021 85.7591 208.709 86.1758C208.396 86.599 208.009 86.918 207.547 87.1328C207.091 87.3542 206.567 87.4648 205.975 87.4648C205.311 87.4648 204.721 87.3281 204.207 87.0547C203.693 86.7878 203.257 86.4069 202.898 85.9121C202.54 85.4238 202.27 84.8444 202.088 84.1738C201.906 83.5098 201.814 82.7773 201.814 81.9766C201.814 81.3385 201.893 80.7038 202.049 80.0723C202.212 79.4408 202.459 78.8678 202.791 78.3535C203.123 77.8392 203.549 77.429 204.07 77.123C204.591 76.8171 205.216 76.6641 205.945 76.6641L205.945 79.6035C205.6 79.6035 205.285 79.7044 204.998 79.9062C204.718 80.1081 204.493 80.388 204.324 80.7461C204.161 81.1042 204.08 81.5143 204.08 81.9766C204.08 82.5169 204.165 82.9759 204.334 83.3535C204.503 83.7376 204.734 84.0273 205.027 84.2227C205.327 84.4245 205.656 84.5254 206.014 84.5254C206.398 84.5254 206.723 84.4733 206.99 84.3691C207.257 84.265 207.475 84.112 207.645 83.9102C207.82 83.7083 207.947 83.4577 208.025 83.1582C208.104 82.8652 208.143 82.5234 208.143 82.1328L208.143 80.375L209.666 80.375ZM213.787 95.4141L202 91.5469L202 88.4316L216.219 93.7148L216.219 95.6973L213.787 95.4141ZM202 98.627L213.787 94.75L216.219 94.4375L216.219 96.4395L202 101.752L202 98.627ZM207.293 98.4512L204.998 98.4512L204.998 90.9414L207.293 90.9414L207.293 98.4512ZM216.219 108.217L202 108.217L202 105.297L216.219 105.297L216.219 108.217ZM216.219 112.592L213.924 112.592L213.924 100.99L216.219 100.99L216.219 112.592ZM207.068 119.799L207.068 116.176L209.354 116.176L209.354 119.799C209.354 120.359 209.445 120.814 209.627 121.166C209.816 121.518 210.076 121.775 210.408 121.937C210.74 122.1 211.115 122.182 211.531 122.182C211.954 122.182 212.348 122.1 212.713 121.937C213.077 121.775 213.37 121.518 213.592 121.166C213.813 120.814 213.924 120.359 213.924 119.799L213.924 117.191L202 117.191L202 114.262L216.219 114.262L216.219 119.799C216.219 120.912 216.017 121.866 215.613 122.66C215.216 123.461 214.666 124.073 213.963 124.496C213.26 124.919 212.456 125.131 211.551 125.131C210.633 125.131 209.839 124.919 209.168 124.496C208.497 124.073 207.98 123.461 207.615 122.66C207.251 121.866 207.068 120.912 207.068 119.799ZM206.609 129.975L216.219 135.687L216.219 138.617L202 138.617L202 135.687L211.609 135.687L202 129.975L202 127.045L216.219 127.045L216.219 129.975L206.609 129.975ZM216.219 142.494L216.219 144.975L205.779 148.627L216.219 152.279L216.219 154.76L202 149.623L202 147.631L216.219 142.494ZM216.219 141.156L216.219 143.627L206.043 144.076L202 144.076L202 141.156L216.219 141.156ZM216.219 153.627L216.219 156.107L202 156.107L202 153.178L206.043 153.178L216.219 153.627ZM216.219 161.615L202 161.615L202 158.686L216.219 158.686L216.219 161.615ZM216.219 169.994L207.869 164.545L207.869 160.961L210.477 160.59L210.477 162.982L216.219 166.439L216.219 169.994ZM202 166.977L208.357 162.992L210.447 165.023L202 170.453L202 166.977ZM213.787 177.387L202 173.52L202 170.404L216.219 175.687L216.219 177.67L213.787 177.387ZM202 180.6L213.787 176.723L216.219 176.41L216.219 178.412L202 183.725L202 180.6ZM207.293 180.424L204.998 180.424L204.998 172.914L207.293 172.914L207.293 180.424Z" fill="white"/>
<path d="M38.1836 177.418V179.625H36.6309V177.867C36.6309 177.353 36.5527 176.936 36.3965 176.617C36.2337 176.298 36.0059 176.064 35.7129 175.914C35.4199 175.764 35.0749 175.689 34.6777 175.689C34.3522 175.689 34.0527 175.774 33.7793 175.943C33.5059 176.106 33.2878 176.36 33.125 176.705C32.9557 177.05 32.8711 177.49 32.8711 178.023C32.8711 178.427 32.9427 178.795 33.0859 179.127C33.2292 179.459 33.431 179.723 33.6914 179.918C33.9453 180.113 34.2546 180.211 34.6191 180.211V183.131C33.9941 183.131 33.4342 182.997 32.9395 182.73C32.4382 182.457 32.015 182.086 31.6699 181.617C31.3184 181.142 31.0514 180.595 30.8691 179.977C30.6868 179.358 30.5957 178.707 30.5957 178.023C30.5957 177.223 30.6836 176.5 30.8594 175.855C31.0286 175.211 31.2826 174.658 31.6211 174.195C31.9596 173.733 32.3796 173.378 32.8809 173.131C33.3822 172.883 33.9648 172.76 34.6289 172.76C35.1172 172.76 35.5762 172.87 36.0059 173.092C36.4355 173.313 36.8132 173.629 37.1387 174.039C37.4642 174.449 37.7214 174.941 37.9102 175.514C38.0924 176.087 38.1836 176.721 38.1836 177.418ZM37.334 179.625V177.418C37.334 176.643 37.4154 175.956 37.5781 175.357C37.7409 174.752 37.9785 174.241 38.291 173.824C38.6035 173.401 38.9909 173.082 39.4531 172.867C39.9089 172.646 40.4329 172.535 41.0254 172.535C41.6895 172.535 42.2786 172.672 42.793 172.945C43.3073 173.212 43.7435 173.593 44.1016 174.088C44.4596 174.576 44.7298 175.156 44.9121 175.826C45.0944 176.49 45.1855 177.223 45.1855 178.023C45.1855 178.661 45.1074 179.296 44.9512 179.928C44.7884 180.559 44.541 181.132 44.209 181.646C43.877 182.161 43.4505 182.571 42.9297 182.877C42.4089 183.183 41.7839 183.336 41.0547 183.336V180.396C41.3997 180.396 41.7155 180.296 42.002 180.094C42.2819 179.892 42.5065 179.612 42.6758 179.254C42.8385 178.896 42.9199 178.486 42.9199 178.023C42.9199 177.483 42.8353 177.024 42.666 176.646C42.4967 176.262 42.2656 175.973 41.9727 175.777C41.6732 175.576 41.3444 175.475 40.9863 175.475C40.6022 175.475 40.2767 175.527 40.0098 175.631C39.7428 175.735 39.5247 175.888 39.3555 176.09C39.1797 176.292 39.0527 176.542 38.9746 176.842C38.8965 177.135 38.8574 177.477 38.8574 177.867V179.625H37.334ZM33.2129 164.586L45 168.453V171.568L30.7813 166.285V164.303L33.2129 164.586ZM45 161.373L33.2129 165.25L30.7813 165.562V163.561L45 158.248V161.373ZM39.707 161.549H42.002V169.059H39.707V161.549ZM30.7813 151.783H45V154.703H30.7813V151.783ZM30.7813 147.408H33.0762L33.0762 159.01H30.7813V147.408ZM39.9316 140.201V143.824H37.6465V140.201C37.6465 139.641 37.5553 139.186 37.373 138.834C37.1842 138.482 36.9238 138.225 36.5918 138.062C36.2598 137.9 35.8854 137.818 35.4688 137.818C35.0456 137.818 34.6517 137.9 34.2871 138.062C33.9225 138.225 33.6296 138.482 33.4082 138.834C33.1868 139.186 33.0762 139.641 33.0762 140.201V142.809H45V145.738H30.7813L30.7813 140.201C30.7813 139.088 30.9831 138.134 31.3867 137.34C31.7839 136.539 32.334 135.927 33.0371 135.504C33.7402 135.081 34.5443 134.869 35.4492 134.869C36.3672 134.869 37.1615 135.081 37.832 135.504C38.5026 135.927 39.0202 136.539 39.3848 137.34C39.7493 138.134 39.9316 139.088 39.9316 140.201ZM40.3906 130.025L30.7813 124.312V121.383H45V124.312H35.3906L45 130.025V132.955H30.7813V130.025H40.3906ZM30.7813 117.506V115.025L41.2207 111.373L30.7813 107.721V105.24L45 110.377L45 112.369L30.7813 117.506ZM30.7813 118.844V116.373L40.957 115.924H45V118.844H30.7813ZM30.7813 106.373V103.893H45V106.822H40.957L30.7813 106.373ZM30.7813 98.3848H45V101.314H30.7813V98.3848ZM30.7813 90.0059L39.1309 95.4551V99.0391L36.5234 99.4102V97.0176L30.7813 93.5605V90.0059ZM45 93.0234L38.6426 97.0078L36.5527 94.9766L45 89.5469V93.0234ZM33.2129 82.6133L45 86.4805V89.5957L30.7813 84.3125L30.7813 82.3301L33.2129 82.6133ZM45 79.4004L33.2129 83.2773L30.7813 83.5898V81.5879L45 76.2754V79.4004ZM39.707 79.5762H42.002V87.0859H39.707V79.5762Z" fill="white"/>
<path d="M90.8359 210.76H87.1836L87.1641 208.748H90.2305C90.7708 208.748 91.2135 208.68 91.5586 208.543C91.9036 208.4 92.1608 208.195 92.3301 207.928C92.5059 207.654 92.5938 207.322 92.5938 206.932C92.5938 206.489 92.5091 206.131 92.3398 205.857C92.1771 205.584 91.9199 205.385 91.5684 205.262C91.2233 205.138 90.7773 205.076 90.2305 205.076H88.1992V217H85.2695V202.781H90.2305C91.0573 202.781 91.7962 202.859 92.4473 203.016C93.1048 203.172 93.6615 203.41 94.1172 203.729C94.5729 204.048 94.9212 204.451 95.1621 204.939C95.403 205.421 95.5234 205.994 95.5234 206.658C95.5234 207.244 95.39 207.785 95.123 208.279C94.8626 208.774 94.4492 209.178 93.8828 209.49C93.3229 209.803 92.5905 209.975 91.6855 210.008L90.8359 210.76ZM90.709 217H86.3828L87.5254 214.715H90.709C91.2233 214.715 91.6432 214.633 91.9688 214.471C92.2943 214.301 92.5352 214.074 92.6914 213.787C92.8477 213.501 92.9258 213.172 92.9258 212.801C92.9258 212.384 92.8542 212.023 92.7109 211.717C92.5742 211.411 92.3529 211.176 92.0469 211.014C91.7409 210.844 91.3372 210.76 90.8359 210.76H88.0137L88.0332 208.748H91.5488L92.2227 209.539C93.0885 209.526 93.7852 209.679 94.3125 209.998C94.8464 210.311 95.2337 210.717 95.4746 211.219C95.722 211.72 95.8457 212.257 95.8457 212.83C95.8457 213.742 95.6471 214.51 95.25 215.135C94.8529 215.753 94.2702 216.219 93.502 216.531C92.7402 216.844 91.8092 217 90.709 217ZM100.865 212.391L106.578 202.781H109.508V217H106.578V207.391L100.865 217H97.9355V202.781H100.865V212.391ZM123.541 214.715V217H113.297V214.715H123.541ZM114.166 214.715V220.486H111.412L111.256 214.715H114.166ZM125.65 214.715L125.396 220.496H122.711V214.715H125.65ZM121.93 202.781V205.076H115.084V202.781H121.93ZM124.02 202.781V217H121.1V202.781H124.02ZM114.723 202.781H117.652L117.271 208.572C117.213 209.529 117.109 210.376 116.959 211.111C116.816 211.84 116.64 212.482 116.432 213.035C116.23 213.589 116.005 214.074 115.758 214.49C115.51 214.9 115.25 215.258 114.977 215.564C114.703 215.864 114.426 216.131 114.146 216.365C113.867 216.593 113.593 216.805 113.326 217H111.646V214.715H112.301C112.49 214.559 112.688 214.344 112.896 214.07C113.111 213.797 113.313 213.429 113.502 212.967C113.697 212.498 113.867 211.906 114.01 211.189C114.16 210.473 114.27 209.601 114.342 208.572L114.723 202.781ZM129.986 212.391L135.699 202.781H138.629V217H135.699V207.391L129.986 217H127.057V202.781H129.986V212.391ZM143.756 202.781L146.432 207.742L149.107 202.781H152.457L148.326 209.832L152.564 217H149.186L146.432 211.941L143.678 217H140.279L144.527 209.832L140.387 202.781H143.756Z" fill="white"/>
<circle cx="32" cy="13" r="13" fill="#0661CC"/>
</svg>
