<svg width="40" height="40" viewBox="0 0 40 40" fill="none" xmlns="http://www.w3.org/2000/svg">
<path d="M6.66699 20L4.89923 18.2322L3.13146 20L4.89923 21.7678L6.66699 20ZM31.667 22.5C33.0477 22.5 34.167 21.3807 34.167 20C34.167 18.6193 33.0477 17.5 31.667 17.5V20V22.5ZM16.667 10L14.8992 8.23223L4.89923 18.2322L6.66699 20L8.43476 21.7678L18.4348 11.7678L16.667 10ZM6.66699 20L4.89923 21.7678L14.8992 31.7678L16.667 30L18.4348 28.2322L8.43476 18.2322L6.66699 20ZM6.66699 20V22.5H31.667V20V17.5H6.66699V20Z" fill="#D6FF00"/>
</svg>
