<svg width="21" height="21" viewBox="0 0 21 21" fill="none" xmlns="http://www.w3.org/2000/svg">
<path d="M0 10.5C0 7.71523 1.10625 5.04451 3.07538 3.07538C5.04451 1.10625 7.71523 0 10.5 0C13.2848 0 15.9555 1.10625 17.9246 3.07538C19.8938 5.04451 21 7.71523 21 10.5C21 13.2848 19.8938 15.9555 17.9246 17.9246C15.9555 19.8938 13.2848 21 10.5 21C7.71523 21 5.04451 19.8938 3.07538 17.9246C1.10625 15.9555 0 13.2848 0 10.5ZM4.49794 4.82606C4.45205 4.78006 4.39353 4.74871 4.3298 4.736C4.26607 4.72329 4.20001 4.72979 4.13998 4.75467C4.07995 4.77956 4.02866 4.8217 3.99261 4.87577C3.95656 4.92984 3.93738 4.99339 3.9375 5.05838V7.875C3.9375 8.05612 4.0845 8.20312 4.26562 8.20312H7.08225C7.14723 8.20324 7.21079 8.18406 7.26485 8.14801C7.31892 8.11197 7.36107 8.06068 7.38595 8.00065C7.41084 7.94062 7.41733 7.87455 7.40463 7.81082C7.39192 7.7471 7.36057 7.68858 7.31456 7.64269L6.62681 6.95494C7.2778 6.24528 8.11132 5.7282 9.03629 5.46019C9.96125 5.19217 10.9421 5.18354 11.8716 5.43523C12.8012 5.68692 13.6437 6.18925 14.307 6.88733C14.9704 7.58542 15.4292 8.4524 15.6332 9.39356C15.6878 9.64889 15.8417 9.87205 16.0609 10.014C16.2801 10.1559 16.5466 10.2049 16.802 10.1502C17.0573 10.0956 17.2805 9.94173 17.4224 9.72254C17.5643 9.50335 17.6133 9.23677 17.5586 8.98144C17.2808 7.69384 16.6561 6.50675 15.7522 5.54865C14.8482 4.59056 13.6994 3.89797 12.4301 3.54584C11.1608 3.19371 9.81942 3.19546 8.55106 3.5509C7.28269 3.90634 6.13571 4.60193 5.23425 5.56238L4.49794 4.82606ZM17.0625 15.9416V13.125C17.0625 13.038 17.0279 12.9545 16.9664 12.893C16.9049 12.8314 16.8214 12.7969 16.7344 12.7969H13.9178C13.8528 12.7968 13.7892 12.8159 13.7351 12.852C13.6811 12.888 13.6389 12.9393 13.614 12.9994C13.5892 13.0594 13.5827 13.1254 13.5954 13.1892C13.6081 13.2529 13.6394 13.3114 13.6854 13.3573L14.3732 14.0451C13.7224 14.7552 12.8889 15.2727 11.9638 15.541C11.0387 15.8092 10.0577 15.818 9.12796 15.5663C8.19823 15.3145 7.35563 14.812 6.69228 14.1136C6.02894 13.4152 5.5704 12.5479 5.36681 11.6064C5.31216 11.3511 5.15832 11.1279 4.93913 10.986C4.71994 10.8441 4.45336 10.7951 4.19803 10.8498C3.9427 10.9044 3.71954 11.0583 3.57764 11.2775C3.43574 11.4967 3.38672 11.7632 3.44138 12.0186C3.71917 13.3062 4.34386 14.4933 5.24782 15.4513C6.15178 16.4094 7.30058 17.102 8.56987 17.4542C9.83915 17.8063 11.1806 17.8045 12.4489 17.4491C13.7173 17.0937 14.8643 16.3981 15.7657 15.4376L16.5021 16.1739C16.548 16.2199 16.6065 16.2513 16.6702 16.264C16.7339 16.2767 16.8 16.2702 16.86 16.2453C16.9201 16.2204 16.9713 16.1783 17.0074 16.1242C17.0434 16.0702 17.0626 16.0066 17.0625 15.9416ZM12.4688 10.5C12.4686 9.97768 12.2609 9.47682 11.8915 9.10761C11.522 8.7384 11.021 8.53108 10.4987 8.53125C9.97637 8.53142 9.47551 8.73908 9.1063 9.10854C8.73709 9.478 8.52976 9.97899 8.52994 10.5013C8.53011 11.0236 8.73777 11.5245 9.10723 11.8937C9.29016 12.0765 9.50732 12.2215 9.74629 12.3204C9.98526 12.4193 10.2414 12.4701 10.5 12.4701C10.7586 12.47 11.0147 12.419 11.2536 12.3199C11.4925 12.2208 11.7096 12.0757 11.8924 11.8928C12.0752 11.7098 12.2202 11.4927 12.3191 11.2537C12.418 11.0147 12.4688 10.7586 12.4688 10.5Z" fill="#116FCF"/>
</svg>
