<svg width="20" height="20" viewBox="0 0 20 20" fill="none" xmlns="http://www.w3.org/2000/svg">
<path d="M10 2C14.411 2 18 5.589 18 10C18 14.411 14.411 18 10 18C5.589 18 2 14.411 2 10C2 5.589 5.589 2 10 2ZM10 0C4.477 0 0 4.477 0 10C0 15.523 4.477 20 10 20C15.523 20 20 15.523 20 10C20 4.477 15.523 0 10 0ZM5.55 11C5.531 11.166 5.5 11.329 5.5 11.5C5.5 12.6935 5.97411 13.8381 6.81802 14.682C7.66193 15.5259 8.80653 16 10 16C11.1935 16 12.3381 15.5259 13.182 14.682C14.0259 13.8381 14.5 12.6935 14.5 11.5C14.5 11.329 14.468 11.166 14.45 11H5.55ZM8 8V6C8 5.73478 7.89464 5.48043 7.70711 5.29289C7.51957 5.10536 7.26522 5 7 5C6.73478 5 6.48043 5.10536 6.29289 5.29289C6.10536 5.48043 6 5.73478 6 6V8C6 8.26522 6.10536 8.51957 6.29289 8.70711C6.48043 8.89464 6.73478 9 7 9C7.26522 9 7.51957 8.89464 7.70711 8.70711C7.89464 8.51957 8 8.26522 8 8ZM14 8V6C14 5.73478 13.8946 5.48043 13.7071 5.29289C13.5196 5.10536 13.2652 5 13 5C12.7348 5 12.4804 5.10536 12.2929 5.29289C12.1054 5.48043 12 5.73478 12 6V8C12 8.26522 12.1054 8.51957 12.2929 8.70711C12.4804 8.89464 12.7348 9 13 9C13.2652 9 13.5196 8.89464 13.7071 8.70711C13.8946 8.51957 14 8.26522 14 8Z" fill="#0661CC"/>
</svg>
