<svg width="26" height="19" viewBox="0 0 26 19" fill="none" xmlns="http://www.w3.org/2000/svg">
<path d="M0 0V1H8V2H2V3H0V4H7V5H2V6H0V7H6V8H2V9H0V10H5V11H2V15C2 15.6 2.4 16 3 16H4C4.2 14.3 5.7 12.906 7.5 12.906C9.3 12.906 10.8 14.2 11 16H14C14.6 16 15 15.6 15 15V1C15 0.4 14.6 0 14 0H0ZM17 4C16.4 4 16 4.4 16 5V15C16 15.5 16.4 16 17 16C17.2 14.3 18.7 12.906 20.5 12.906C22.3 12.906 23.8 14.2 24 16H25C25.6 16 26 15.6 26 15V10C26 9.1 25.187 8 25.187 8L23 5C22.5 4.4 22.2 4 21.5 4H17ZM19 6H21.406C21.606 6 21.813 6.188 21.813 6.188L23.906 9.094C24.106 9.394 24.313 9.706 24.313 9.906H19V6ZM7.5 14.188C6.88729 14.1898 6.3002 14.434 5.86685 14.8671C5.43351 15.3003 5.18911 15.8873 5.187 16.5C5.18885 17.1129 5.43313 17.7001 5.8665 18.1335C6.29987 18.5669 6.88712 18.8112 7.5 18.813C8.11288 18.8112 8.70013 18.5669 9.1335 18.1335C9.56687 17.7001 9.81115 17.1129 9.813 16.5C9.81115 15.8871 9.56687 15.2999 9.1335 14.8665C8.70013 14.4331 8.11288 14.1898 7.5 14.188ZM20.5 14.188C19.8873 14.1898 19.3002 14.434 18.8669 14.8671C18.4335 15.3003 18.1891 15.8873 18.187 16.5C18.1888 17.1129 18.4331 17.7001 18.8665 18.1335C19.2999 18.5669 19.8871 18.8112 20.5 18.813C21.1129 18.8112 21.7001 18.5669 22.1335 18.1335C22.5669 17.7001 22.8112 17.1129 22.813 16.5C22.8112 15.8871 22.5669 15.2999 22.1335 14.8665C21.7001 14.4331 21.1129 14.1898 20.5 14.188Z" fill="#116FCF"/>
</svg>
